<svg width="120" height="113" viewBox="0 0 120 113" fill="none" xmlns="http://www.w3.org/2000/svg">
<g clip-path="url(#clip0_3_34)">
<path d="M5.73668 90.9005H12.7864L15.3509 98.3949L21.9412 90.9005H29.783L24.0463 112.228H16.9388L19.7745 101.656L12.8189 109.241H12.6959L9.82759 101.656L6.9918 112.228H0L5.73668 90.9005Z" fill="#0462A3"/>
<path d="M27.2763 108.053C27.2763 104.549 30.0217 102.263 34.7203 102.263C35.9718 102.263 37.2522 102.447 38.5037 102.812L38.5652 102.628C38.6267 102.415 38.6882 102.079 38.6882 101.804C38.6882 100.768 37.8635 100.19 36.1237 100.19C34.5973 100.19 32.7055 100.493 31.577 100.923L30.6619 96.2314C32.4632 95.6824 35.1181 95.3465 37.5271 95.3465C43.0504 95.3465 45.6113 97.4486 45.6113 100.768C45.6113 101.468 45.5208 102.259 45.3074 103.083L42.8659 112.224H35.9392L36.3986 110.548C34.9047 111.798 33.6532 112.589 31.7289 112.589C29.1644 112.589 27.2727 110.913 27.2727 108.049L27.2763 108.053ZM37.7731 105.983L37.9575 105.282C37.4982 105.16 37.1328 105.098 36.6771 105.098C34.9373 105.098 33.9607 105.922 33.9607 107.352C33.9607 108.204 34.449 108.663 35.0892 108.663C36.1888 108.663 37.3788 107.536 37.7731 105.983Z" fill="#0462A3"/>
<path d="M44.3634 109.851L47.4162 105.889C48.9101 107.077 51.5035 108.143 53.3953 108.143C54.097 108.143 54.3719 107.868 54.3719 107.565C54.3719 107.016 53.8546 106.742 51.7784 105.98C49.0946 105.004 47.2318 103.787 47.2318 101.165C47.2318 97.8459 50.0386 95.1949 55.041 95.1949C58.3977 95.1949 61.2335 96.1989 62.9118 97.4811L59.859 101.443C58.5785 100.558 56.4408 99.677 54.7951 99.677C54.0319 99.677 53.6955 99.8901 53.6955 100.226C53.6955 100.681 54.0608 100.865 56.1045 101.598C58.7594 102.541 60.832 103.701 60.832 106.626C60.832 109.4 58.8787 112.629 53.265 112.629C49.4816 112.629 46.3998 111.412 44.3562 109.855L44.3634 109.851Z" fill="#0462A3"/>
<path d="M62.8539 103.18C62.8539 96.2025 68.3446 90.4454 76.9496 90.4454C80.9754 90.4454 84.4261 92.1827 85.891 93.9813L81.4348 98.5502C80.2158 97.4233 78.382 96.6323 76.4939 96.6323C72.4355 96.6323 70.0265 99.4062 70.0265 102.848C70.0265 105.499 71.9472 106.81 74.1753 106.81C74.9385 106.81 75.5498 106.687 76.0381 106.474L76.7398 104.188H73.2313L74.3923 99.6192H84.6757L81.6229 110.494C79.5177 111.744 76.4975 112.687 73.4157 112.687C68.1059 112.687 62.8575 109.884 62.8575 103.18H62.8539Z" fill="#0462A3"/>
<path d="M84.3646 108.053C84.3646 104.549 87.1099 102.263 91.8085 102.263C93.06 102.263 94.3405 102.447 95.592 102.812L95.6535 102.628C95.715 102.415 95.7765 102.079 95.7765 101.804C95.7765 100.768 94.9518 100.19 93.2119 100.19C91.6855 100.19 89.7938 100.493 88.6653 100.923L87.7502 96.2314C89.5515 95.6824 92.2064 95.3465 94.6154 95.3465C100.139 95.3465 102.7 97.4486 102.7 100.768C102.7 101.468 102.609 102.259 102.396 103.083L99.9542 112.224H93.0275L93.4868 110.548C91.993 111.798 90.7415 112.589 88.8172 112.589C86.2527 112.589 84.361 110.913 84.361 108.049L84.3646 108.053ZM94.8613 105.983L95.0458 105.282C94.5864 105.16 94.2211 105.098 93.7654 105.098C92.0255 105.098 91.0489 105.922 91.0489 107.352C91.0489 108.204 91.5372 108.663 92.1775 108.663C93.277 108.663 94.4671 107.536 94.8613 105.983Z" fill="#0462A3"/>
<path d="M101.452 109.851L104.501 105.889C105.995 107.077 108.588 108.143 110.48 108.143C111.182 108.143 111.456 107.868 111.456 107.565C111.456 107.016 110.939 106.742 108.863 105.98C106.179 105.004 104.316 103.787 104.316 101.165C104.316 97.8459 107.123 95.1949 112.126 95.1949C115.482 95.1949 118.318 96.1989 119.996 97.4811L116.944 101.443C115.663 100.558 113.525 99.677 111.88 99.677C111.116 99.677 110.78 99.8901 110.78 100.226C110.78 100.681 111.145 100.865 113.189 101.598C115.844 102.541 117.917 103.701 117.917 106.626C117.917 109.4 115.963 112.629 110.35 112.629C106.566 112.629 103.484 111.412 101.441 109.855L101.452 109.851Z" fill="#0462A3"/>
<path d="M43.9076 57.2281C47.4957 63.5487 54.4731 67.695 62.3727 67.211C72.2148 66.6079 80.223 58.6367 80.8596 48.8128C80.9464 47.4548 80.8994 46.1256 80.7222 44.8326C80.44 42.745 77.8719 41.8927 76.3744 43.3735L69.0426 50.6259C62.3402 56.867 55.7897 55.4584 52.2775 53.909C50.8994 53.3022 50.5558 51.5071 51.6264 50.4453L78.6568 23.7111C80.5449 21.8438 83.6086 21.8438 85.4678 23.74C91.7687 30.1762 95.5304 39.0972 95.1362 48.8922C94.4164 66.9437 79.3477 81.4232 61.2551 81.4955C42.3884 81.5677 27.0737 66.3225 27.0737 47.5017C27.0737 38.0064 30.9729 29.4213 37.2558 23.256L53.0118 7.8411C55.2073 5.46096 56.3395 2.65824 56.8603 1.01129C57.1063 0.231148 57.9563 -0.19865 58.7195 0.0975135C65.0638 2.57156 69.5563 8.7332 69.5563 15.9423C69.5563 20.6953 66.8434 25.7048 64.4526 28.0777C62.0617 30.4506 51.8724 40.5744 45.4051 46.9455C42.6561 49.6543 41.9942 53.8764 43.9004 57.2318L43.9076 57.2281Z" fill="#FF0000"/>
</g>
<defs>
<clipPath id="clip0_3_34">
<rect width="120" height="112.683" fill="white"/>
</clipPath>
</defs>
</svg>
